<?xml version="1.0" standalone="no"?><!DOCTYPE svg PUBLIC "-//W3C//DTD SVG 1.1//EN" "http://www.w3.org/Graphics/SVG/1.1/DTD/svg11.dtd"><svg t="1693364553735" class="icon" viewBox="0 0 1024 1024" version="1.1" xmlns="http://www.w3.org/2000/svg" p-id="2521" width="200" height="200" xmlns:xlink="http://www.w3.org/1999/xlink"><path d="M218.4192 720.5888a297.3184 201.984 0 1 0 594.6368 0 297.3184 201.984 0 1 0-594.6368 0Z" fill="#FFB07D" p-id="2522"></path><path d="M802.6112 667.392c-0.7168 3.8912-37.7856 198.3488-286.976 198.3488-219.6992 0-274.8928-160.5632-285.3888-201.4208-7.6288 17.8688-11.8272 36.7616-11.8272 56.32 0 111.5648 133.12 201.984 297.3184 201.984s297.3184-90.4192 297.3184-201.984c0.0512-18.432-3.6864-36.3008-10.4448-53.248z" fill="#FF7931" p-id="2523"></path><path d="M515.7376 518.656c164.1984 0 297.3184 90.4192 297.3184 201.984 0 1.4336-0.1024 2.816-0.1536 4.2496 55.9104-150.3232 35.5328-190.2592 30.6688-199.9872-4.9152-9.7792-39.2192-79.4112-48.0256-111.7696-8.8064-32.3584-4.5568-81.3568-32.3584-149.6576-39.1168-96.2048-241.2032-101.3248-241.2032-101.3248s-170.5984-14.6944-240.2304 68.608C243.5584 278.784 240.64 365.056 237.6704 389.5808s-30.4128 103.936-46.08 127.4368-22.528 99.0208 26.4704 201.0112h0.4608c2.048-110.336 134.2976-199.3728 297.216-199.3728z" fill="#F2B655" p-id="2524" data-spm-anchor-id="a313x.search_index.0.i0.371f3a817n0eft" class="selected"></path><path d="M763.1872 263.424c-39.1168-96.2048-241.2032-101.3248-241.2032-101.3248s-170.5984-14.6944-240.2304 68.608c-20.3776 25.6-30.72 62.1056-36.4032 94.3104 23.1936-39.6288 62.6176-89.5488 109.9264-78.592 22.528 7.8336 47.36 16.6912 58.4704 123.5456 6.7072 64.3072 3.6864 121.1392-3.2768 161.7408 32.7168-8.3968 68.1472-13.056 105.1648-13.056 36.4544 0 71.3216 4.4544 103.5776 12.5952-8.4992-38.1952-17.2032-94.9248-13.9776-159.3344 3.9424-56.8832 29.3888-131.4816 81.3568-127.0272 33.7408 2.9184 65.2288 29.1328 92.5184 68.352a329.3696 329.3696 0 0 0-15.9232-49.8176z" fill="#FFFFFF" p-id="2525"></path><path d="M709.4784 207.2576c2.7648-29.6448 4.2496-86.9888-23.0912-100.4032-33.2288-16.3328-78.8992 41.1136-91.648 63.0272 36.5568 6.2464 80.1792 17.4592 114.7392 37.376zM434.0736 164.4032c-16.128-24.6272-57.4976-72.6528-88.2176-57.5488-24.6272 12.0832-25.856 59.8528-23.808 90.88 34.1504-19.6608 75.6736-29.0304 112.0256-33.3312z" fill="#F7F89B" p-id="2526"></path><path d="M342.528 655.1552l52.5824 87.7568-78.3872-17.2032-11.5712-44.5952zM686.336 655.1552l-52.6336 87.7568 78.4384-17.2032 11.52-44.5952z" fill="#FF7931" p-id="2527"></path><path d="M242.7392 342.272c0.6144-4.352 1.28-8.9088 2.048-13.5168-26.0096-13.7728-88.064-49.5616-128.9728-97.0752-16.5376-20.4288-33.3824-39.68-59.4944-24.4224s0.6656 62.976 30.72 90.4704c27.3408 24.9856 104.5504 63.488 155.6992 44.544z" fill="#FFFFFF" p-id="2528"></path><path d="M281.8048 230.7072c6.5536-7.8336 13.9776-14.7968 22.1184-20.992-33.024 18.6368-109.1072 47.6672-210.5856-1.28 8.0384 5.6832 15.3088 14.3872 22.4768 23.2448 40.96 47.5136 102.9632 83.2512 128.9728 97.0752 5.4784-33.0752 15.8208-71.424 37.0176-98.048z" fill="#F2B655" p-id="2529"></path><path d="M970.3424 207.2576c-26.1632-15.2576-42.9568 3.9936-59.4944 24.4224-40.6016 47.104-101.888 82.6368-128.3072 96.7168 0.9728 4.9152 1.8432 9.728 2.56 14.336 51.0976 17.92 127.3344-20.224 154.4704-45.0048 30.1056-27.4432 56.8832-75.1616 30.7712-90.4704z" fill="#FFFFFF" p-id="2530"></path><path d="M705.4848 205.0048c26.0608 14.2336 47.4624 33.1776 57.7024 58.368 9.7792 24.0128 15.5136 45.6192 19.3536 64.9728 26.4192-14.0288 87.7056-49.6128 128.3072-96.7168 7.168-8.9088 14.4384-17.5616 22.4768-23.2448-105.8816 48.384-200.8576 9.8304-227.84-3.3792z" fill="#F2B655" p-id="2531"></path><path d="M649.0624 434.6368m-42.9056 0a42.9056 42.9056 0 1 0 85.8112 0 42.9056 42.9056 0 1 0-85.8112 0Z" fill="#FFFFFF" p-id="2532"></path><path d="M374.6304 434.6368m-42.9056 0a42.9056 42.9056 0 1 0 85.8112 0 42.9056 42.9056 0 1 0-85.8112 0Z" fill="#FFFFFF" p-id="2533"></path><path d="M996.0448 222.1568c-1.28-12.1344-7.68-22.1184-17.9712-28.16-21.0944-12.3392-38.2976-8.3456-52.0192 0.8192-86.0672 38.912-164.608 16.896-200.3968 2.3552 2.56-41.4208-1.8944-89.088-32.4608-104.0896-40.5504-19.9168-86.3232 31.1296-105.8816 60.0064-33.8432-5.2224-59.8016-6.1952-64.4608-6.2976-5.2224-0.4096-38.912-2.816-81.408 1.3312-15.872-21.8112-60.5184-75.5712-102.3488-55.04-23.8592 11.7248-34.8672 44.1344-32.8192 96.4096-3.3792 2.1504-6.656 4.4544-9.8816 6.8096-33.1264 18.7392-102.5536 43.3152-195.84-1.4336-13.7728-9.216-30.9248-13.1584-52.0192-0.8704-10.2912 6.0416-16.6912 16.0256-17.9712 28.16-2.9696 28.0576 21.8112 64.7168 46.08 86.8864 23.6032 21.5552 82.2272 53.6576 135.1168 53.6576 4.4544 0 8.8064-0.3072 13.1584-0.8192-0.512 5.1712-0.9728 9.9328-1.3312 14.1824-0.4096 4.7104-0.768 8.6528-1.1264 11.6224-2.7136 22.6816-29.696 99.8912-43.6224 120.7808-18.2272 27.2896-26.5728 106.5984 24.2688 213.76 1.28 119.0912 141.0048 215.6544 312.6272 215.6544 168.9088 0 306.8928-93.5936 312.4224-210.0736 37.7856-102.2464 47.6672-172.8512 29.1328-209.8688-13.1584-26.2656-39.8336-82.8928-46.9504-108.9536-2.6624-9.728-4.096-21.9136-5.7344-36.0448-0.4096-3.5328-0.8192-7.168-1.28-10.9056 3.7888 0.3584 7.5776 0.6144 11.4176 0.6144 52.9408 0 111.7184-32.256 135.2192-53.6576 24.2688-22.1184 49.0496-58.7264 46.08-86.8352z m-116.4288 19.8144c-0.5632 0.512-1.0752 1.024-1.6384 1.536-2.5088 2.304-5.0176 4.608-7.5264 6.8096l-2.6112 2.304c-3.3792 2.9184-6.8608 5.7856-10.2912 8.5504-0.512 0.4096-1.0752 0.8192-1.5872 1.28-2.9696 2.3552-5.9392 4.6592-8.9088 6.8608-1.0752 0.8192-2.1504 1.5872-3.2256 2.4064-2.56 1.8944-5.0688 3.7376-7.5776 5.5296-1.024 0.7168-1.9968 1.4336-2.9696 2.1504-3.3792 2.3552-6.7072 4.6592-9.984 6.8608l-0.0512 0.0512c-3.328 2.2528-6.6048 4.352-9.8304 6.4-0.9216 0.6144-1.8432 1.1776-2.7648 1.7408-2.304 1.4336-4.5568 2.816-6.7584 4.1984-0.8704 0.5632-1.792 1.0752-2.6624 1.6384-2.5088 1.536-4.9664 2.9696-7.2704 4.3008-0.256 0.1536-0.5632 0.3072-0.8192 0.4608-1.9456-7.6288-4.2496-15.616-7.0144-23.9104v-0.0512c-1.1264-3.4304-2.3552-6.912-3.6352-10.496l-0.768-2.1504c-1.3312-3.5328-2.7136-7.1168-4.1984-10.8032-1.2288-2.9696-2.56-5.888-4.0448-8.704-0.4608-0.9216-1.024-1.792-1.536-2.7136-0.768-1.3824-1.4848-2.816-2.3552-4.1984 30.72 5.9392 68.6592 8.3456 110.0288-0.0512z m-199.9872-121.344c10.752 5.2736 16.4864 28.8256 15.872 62.3104-16.4352-7.424-35.0208-13.7728-55.6032-19.0976-1.0752-0.3072-2.2016-0.5632-3.2768-0.8192-1.9968-0.512-3.9424-1.024-5.9904-1.4848-3.2768-0.768-6.5536-1.536-9.8304-2.2528 17.9712-22.528 44.4416-45.7216 58.8288-38.656zM336.7424 173.2096c0.6144-32.8704 8.0896-48.7424 15.872-52.5824 1.8432-0.8704 3.84-1.3312 5.9904-1.3312 13.2096 0 32.1536 15.6672 47.616 33.6384-11.8272 2.1504-23.9104 4.864-35.9424 8.3456l-1.1776 0.3072c-4.7616 1.3824-9.5232 2.9696-14.2336 4.608-1.4336 0.512-2.816 0.9728-4.2496 1.4848-4.2496 1.5872-8.4992 3.2256-12.6464 4.9664-0.4096 0.256-0.8192 0.4096-1.2288 0.5632zM254.3616 245.1968c-6.7584 13.1072-12.4416 28.2112-17.1008 45.4144-0.256 0.8704-0.4608 1.7408-0.7168 2.6624-0.5632 2.1504-1.1264 4.4032-1.6384 6.6048-0.3584 1.3824-0.6656 2.816-0.9728 4.1984-0.0512 0.3072-0.1536 0.6144-0.2048 0.9728-0.5632-0.3072-1.1264-0.6656-1.6896-0.9728-1.9456-1.1264-3.8912-2.304-5.9392-3.5328-0.9728-0.6144-1.9968-1.2288-3.0208-1.8432-1.9968-1.2288-4.0448-2.4576-6.0928-3.7376-1.024-0.6656-2.048-1.28-3.072-1.9456-2.6112-1.6384-5.2224-3.328-7.936-5.12-0.5632-0.3584-1.0752-0.7168-1.6384-1.0752-3.2256-2.1504-6.5024-4.352-9.8304-6.656-0.9216-0.6144-1.792-1.28-2.7136-1.9456-2.4576-1.7408-4.9152-3.4816-7.424-5.3248-1.1264-0.8192-2.304-1.6896-3.4304-2.56-2.3552-1.7408-4.7104-3.584-7.0656-5.4272-1.0752-0.8704-2.2016-1.6896-3.2768-2.56a385.024 385.024 0 0 1-9.0624-7.424c-0.3584-0.3072-0.7168-0.5632-1.0752-0.8704-3.328-2.816-6.6048-5.7344-9.8304-8.704-0.256-0.256-0.512-0.4608-0.768-0.7168 40.6528 9.3696 75.9296 7.2192 104.4992 0.5632z m-156.9792 41.1648c-21.0944-19.2512-37.6832-47.2064-36.2496-60.9792 0.3072-2.816 1.28-3.8912 2.9184-4.864 3.6864-2.1504 6.9632-3.3792 10.1888-3.3792 7.8848 0 15.7696 7.0656 29.9008 24.576 2.4576 2.8672 5.0176 5.632 7.5776 8.3968 0.8192 0.8704 1.6896 1.7408 2.5088 2.6112 1.792 1.8944 3.6352 3.7888 5.5296 5.632 0.9728 0.9728 1.9456 1.8944 2.9184 2.8672 1.8432 1.792 3.7376 3.584 5.632 5.3248 0.9216 0.8704 1.8432 1.7408 2.7648 2.56 2.4576 2.2016 4.864 4.352 7.3728 6.5024 0.3584 0.3072 0.7168 0.6656 1.1264 0.9728 2.816 2.4064 5.6832 4.8128 8.5504 7.1168l2.9184 2.304c1.9456 1.536 3.8912 3.1232 5.888 4.608 1.1264 0.8704 2.2016 1.6896 3.328 2.5088 1.8944 1.4336 3.7376 2.816 5.632 4.1984 1.0752 0.768 2.0992 1.536 3.1744 2.304 2.2016 1.5872 4.352 3.1232 6.5024 4.6592l2.048 1.4336c2.7648 1.8944 5.4784 3.7888 8.192 5.5808 0.9728 0.6656 1.9456 1.28 2.9184 1.8944 1.792 1.1776 3.5328 2.3552 5.3248 3.4816 1.0752 0.7168 2.1504 1.3824 3.1744 2.048 1.6384 1.024 3.2256 2.048 4.8128 3.0208 1.024 0.6144 1.9968 1.28 3.0208 1.8944 1.7408 1.0752 3.4816 2.0992 5.1712 3.1232 0.6656 0.4096 1.3824 0.8704 2.0992 1.28 2.1504 1.28 4.2496 2.5088 6.2976 3.6864-43.2128 3.1744-99.84-25.8048-121.2416-45.3632z m418.3552 620.8512c-155.4944 0-281.9584-83.712-281.9584-186.624 0-0.768 0.0512-1.4848 0.1024-2.2528v-0.0512c1.8432-98.4576 120.576-179.0976 267.5712-184.064 4.7616-0.1536 9.5232-0.256 14.336-0.256 155.4944 0 281.9584 83.712 281.9584 186.624 0 0.9728-0.1024 1.8944-0.1024 2.816l-0.0512 0.9728v0.0512c-3.1232 101.1712-128.3072 182.784-281.856 182.784z m314.1632-375.3984c11.1616 22.3232 6.7072 68.1984-12.3904 131.6864-0.7168-1.792-1.4848-3.5328-2.2528-5.3248-0.3584-0.8704-0.7168-1.792-1.1264-2.6624-1.4336-3.1232-2.9184-6.2464-4.5568-9.3696-0.3072-0.5632-0.6656-1.1264-0.9728-1.6896-1.3312-2.5088-2.7648-5.0176-4.2496-7.4752-0.6144-1.024-1.28-1.9968-1.8944-3.0208-1.28-2.048-2.56-4.0448-3.9424-6.0416-0.7168-1.0752-1.4848-2.1504-2.2016-3.1744-1.3824-1.9456-2.816-3.8912-4.3008-5.7856-0.768-0.9728-1.4848-1.9968-2.304-2.9696-1.6896-2.1504-3.4304-4.1984-5.2224-6.2976-0.6144-0.7168-1.1776-1.4336-1.8432-2.1504-2.4576-2.816-5.0176-5.5808-7.6288-8.2944a16.9984 16.9984 0 0 0-0.9728-0.9216c-2.304-2.3552-4.7104-4.7104-7.168-7.0144-0.8704-0.8192-1.7408-1.5872-2.6112-2.4064-1.9968-1.792-3.9936-3.584-6.0416-5.3248l-3.072-2.6112c-2.048-1.6896-4.096-3.328-6.1952-4.9664-1.024-0.8192-2.0992-1.6384-3.1232-2.4576-2.3552-1.792-4.7616-3.5328-7.168-5.2224-0.8192-0.6144-1.6384-1.1776-2.5088-1.792-3.328-2.304-6.7584-4.5568-10.24-6.7584-0.256-0.1536-0.5632-0.3584-0.8192-0.512-3.1744-1.9968-6.4-3.9424-9.728-5.8368-1.0752-0.6144-2.2016-1.2288-3.2768-1.8432-2.56-1.4336-5.12-2.816-7.7312-4.1984-1.28-0.6656-2.6112-1.3312-3.8912-2.048-2.5088-1.28-5.0688-2.56-7.68-3.7888-1.3312-0.6144-2.6112-1.28-3.9424-1.8944-2.816-1.3312-5.6832-2.56-8.6016-3.84-1.1264-0.4608-2.2016-0.9728-3.2768-1.4336-4.0448-1.6896-8.0896-3.328-12.288-4.9152-0.256-0.1024-0.4608-0.1536-0.7168-0.256-3.8912-1.4336-7.8336-2.8672-11.776-4.1984-1.3312-0.4608-2.6624-0.8704-3.9936-1.28-2.9696-0.9728-5.888-1.8944-8.9088-2.816a431.54432 431.54432 0 0 0-13.4144-3.7888l-4.7616-1.2288c-3.1232-0.768-6.2976-1.536-9.472-2.2528l-4.096-0.9216c-4.5568-0.9728-9.1648-1.8944-13.824-2.7136-0.2048-0.0512-0.4096-0.0512-0.6144-0.1024-4.4544-0.768-8.9088-1.4848-13.4144-2.1504l-4.5056-0.6144c-3.2256-0.4608-6.5024-0.8704-9.7792-1.2288-1.7408-0.2048-3.5328-0.3584-5.3248-0.5632-3.1232-0.3072-6.2464-0.5632-9.3696-0.8192-1.792-0.1536-3.584-0.256-5.4272-0.4096-3.328-0.2048-6.7072-0.4096-10.0864-0.512-1.5872-0.0512-3.1232-0.1536-4.7104-0.2048a479.232 479.232 0 0 0-14.8992-0.256c-5.2736 0-10.5472 0.1024-15.8208 0.256l-2.8672 0.1536c-4.352 0.1536-8.6528 0.4096-13.0048 0.6656l-1.6384 0.1536c-69.2736 5.0688-133.6832 25.7536-184.1664 59.648-41.984 28.16-71.0656 63.1808-85.248 101.632-26.1632-74.9056-18.432-125.5424-8.6016-140.288 16.6912-25.0368 45.312-107.0592 48.5376-134.144 0.4096-3.2256 0.768-7.4752 1.2288-12.4928 0.8192-9.2672 1.9968-21.4016 3.84-34.9184 0.5632-4.096 1.1776-8.3456 1.9456-12.6976 6.7584-40.4992 18.1248-71.0144 33.7408-90.7776 1.4336-1.6896 2.9184-3.3792 4.4544-5.0176 1.2288-1.28 2.5088-2.56 3.84-3.84l0.8704-0.8704c3.2768-3.072 6.7584-6.0416 10.4448-8.8576 0.0512 0 0.0512-0.0512 0.1024-0.1024 5.0688-3.8912 10.496-7.424 16.128-10.7008 0.1024-0.0512 0.2048-0.0512 0.256-0.1024 16.9984-9.8304 37.3248-17.6128 60.5696-23.296 0.1536-0.0512 0.256-0.0512 0.4096-0.1024 4.4032-1.0752 8.96-2.048 13.568-2.9696 0.3584-0.0512 0.7168-0.1536 1.0752-0.2048 4.5568-0.8704 9.216-1.6896 13.9776-2.4576 0.4608-0.0512 0.9216-0.1536 1.3312-0.2048 4.5568-0.7168 9.2672-1.3312 14.0288-1.8944 22.1184-2.6624 42.4448-3.328 57.7536-3.328 16.9984 0 27.8528 0.8704 28.2624 0.9216 0.3072 0 0.6144 0.0512 0.9216 0.0512 0.768 0 31.5904 0.9728 70.5024 7.5776h0.0512c43.7248 7.4752 80.8448 19.4048 107.776 34.56 21.504 12.0832 36.8128 26.2656 45.5168 42.24 1.28 2.4064 2.4576 4.8128 3.4816 7.3728 1.9968 4.864 3.84 9.7792 5.5808 14.7456 0.0512 0.2048 0.1536 0.4096 0.2048 0.6144 5.3248 15.1552 9.5232 30.6176 12.6976 46.848 0.8704 4.5056 1.6896 8.8576 2.3552 13.1072 1.8944 11.5712 3.1232 22.272 4.3008 32.1024 1.792 15.3088 3.328 28.5696 6.6048 40.5504 9.8304 35.5328 47.6672 111.4112 49.3056 114.7392z m99.328-245.4528c-21.248 19.3536-78.08 48.384-121.1392 45.3632 2.1504-1.2288 4.4032-2.6112 6.7584-3.9936 0.6144-0.3584 1.28-0.768 1.8944-1.1264 1.792-1.0752 3.6352-2.2016 5.4784-3.328l2.4576-1.536c1.792-1.1264 3.6352-2.304 5.5296-3.4816 0.8192-0.512 1.6384-1.0752 2.5088-1.5872 2.2016-1.3824 4.4032-2.8672 6.656-4.352 0.512-0.3584 1.0752-0.7168 1.5872-1.0752 2.7648-1.8432 5.632-3.7888 8.4992-5.7856 0.6144-0.4096 1.2288-0.8704 1.8432-1.3312 2.2528-1.5872 4.4544-3.1744 6.7072-4.8128 0.9216-0.6656 1.8944-1.3824 2.816-2.0992 1.9968-1.4848 3.9936-2.9696 5.9904-4.5056 0.9728-0.768 1.9456-1.4848 2.9696-2.2528 2.1504-1.6384 4.3008-3.328 6.4512-5.0688 0.8192-0.6144 1.5872-1.28 2.4064-1.8944a379.904 379.904 0 0 0 8.6528-7.2192l1.3824-1.2288c2.4064-2.048 4.7616-4.1472 7.1168-6.2976 0.9216-0.8704 1.8432-1.6896 2.7648-2.56 1.8944-1.7408 3.7376-3.5328 5.632-5.3248 0.9728-0.9728 1.9968-1.9456 2.9696-2.9184 1.8432-1.8432 3.6864-3.6864 5.4784-5.5808 0.8704-0.9216 1.7408-1.792 2.6112-2.7136 2.5088-2.6624 4.9664-5.376 7.3216-8.1408 0.1024-0.1024 0.2048-0.2048 0.256-0.3072 0.1024-0.1024 0.1536-0.2048 0.256-0.3072 7.0656-8.7552 12.544-14.7968 17.2544-18.6368l1.2288-0.9216c7.6288-5.7344 13.4144-5.4272 21.0432-0.9728 1.6384 0.9728 2.6112 2.048 2.9184 4.864 1.4336 13.9776-15.2064 41.8816-36.3008 61.1328z" fill="#333B44" p-id="2534"></path><path d="M686.2848 623.5648c-4.608-1.024-9.5744-0.1024-13.5168 2.6112-3.9936 2.7136-6.7072 6.9632-7.4752 11.7248-10.3936 65.4848-54.2208 92.2624-72.6016 100.7616a17.39776 17.39776 0 0 0 6.2976 33.1776c4.4032 0.256 8.8064 0.4096 13.2096 0.4096 33.6896 0 66.3552-7.8336 91.136-22.016 38.7584-21.6576 40.7552-50.8416 38.5024-66.3552-3.9936-27.6992-28.416-54.2208-55.552-60.3136z m1.9456 99.9424c-11.8272 6.7584-25.9072 11.7248-41.216 14.7456 18.0736-17.152 36.1472-42.3936 45.2608-78.7456 9.2672 6.5024 17.5104 17.2544 19.2 28.8256 1.9968 13.6192-5.7856 25.4464-23.2448 35.1744zM439.552 738.6624c-18.3808-8.4992-62.208-35.2768-72.6016-100.7616-0.768-4.7616-3.4816-9.0112-7.4752-11.7248-3.9424-2.6624-8.8576-3.6352-13.5168-2.56-27.136 6.0928-51.5072 32.6144-55.552 60.3648-2.2528 15.4624-0.256 44.6464 38.3488 66.2528 24.8832 14.2336 57.6 22.0672 91.2896 22.0672 4.4032 0 8.7552-0.1536 13.1584-0.4096a17.4848 17.4848 0 0 0 16.128-14.1824c1.4848-7.8848-2.5088-15.7184-9.7792-19.0464z m-95.6416-15.2064c-17.3056-9.6768-25.088-21.504-23.0912-35.072 1.6896-11.6224 9.9328-22.3232 19.2-28.8256 9.1136 36.352 27.1872 61.5936 45.2096 78.7456-15.2576-3.072-29.44-8.0896-41.3184-14.848zM718.4384 258.4576c-1.3312-0.768-33.2288-18.3808-64.6144-9.2672-16.8448 4.864-30.0544 16.0768-39.3216 33.28a15.3088 15.3088 0 0 0 6.2464 20.7872c2.304 1.2288 4.8128 1.8432 7.2704 1.8432 5.4784 0 10.752-2.9184 13.5168-8.0896 5.2736-9.7792 12.032-15.7696 20.736-18.3296 18.7904-5.5296 40.6528 6.1952 41.216 6.5024a15.36 15.36 0 0 0 20.8896-5.888c4.096-7.3216 1.4336-16.6912-5.9392-20.8384zM322.9696 285.2352c0.2048-0.1024 22.272-12.0832 41.216-6.5024 8.6528 2.56 15.4624 8.5504 20.736 18.3296a15.3344 15.3344 0 0 0 20.7872 6.2464c7.4752-4.0448 10.24-13.3632 6.2464-20.7872-9.2672-17.2032-22.528-28.416-39.3216-33.28-31.4368-9.1136-63.2832 8.4992-64.6144 9.2672-7.3728 4.1472-9.984 13.4656-5.888 20.8384s13.4656 9.984 20.8384 5.888zM369.7664 366.6944c-34.816 0-63.1296 28.3136-63.1296 63.1296s28.3136 63.1296 63.1296 63.1296 63.1296-28.3136 63.1296-63.1296-28.3136-63.1296-63.1296-63.1296z m0 95.488c-17.8688 0-32.4096-14.5408-32.4096-32.4096s14.5408-32.4096 32.4096-32.4096 32.4096 14.5408 32.4096 32.4096-14.5408 32.4096-32.4096 32.4096zM655.8208 362.9056c-35.84 0-65.024 29.184-65.024 65.024 0 35.84 29.184 65.024 65.024 65.024 35.84 0 65.024-29.184 65.024-65.024 0-35.8912-29.184-65.024-65.024-65.024z m0 99.2768c-18.8928 0-34.304-15.36-34.304-34.304 0-18.8928 15.36-34.304 34.304-34.304 18.8928 0 34.304 15.36 34.304 34.304s-15.4112 34.304-34.304 34.304z" fill="#333B44" p-id="2535"></path></svg>